<svg width="43" height="46" viewBox="0 0 43 46" fill="none" xmlns="http://www.w3.org/2000/svg">
<path fill-rule="evenodd" clip-rule="evenodd" d="M40.3795 26.1279V38.0042C40.3795 39.8941 39.6287 41.7066 38.2924 43.0429C36.956 44.3793 35.1436 45.13 33.2537 45.13H23.7526V26.1279H40.3795ZM19.0021 26.1279V45.13H9.50105C7.61118 45.13 5.7987 44.3793 4.46236 43.0429C3.12601 41.7066 2.37526 39.8941 2.37526 38.0042V26.1279H19.0021ZM14.2516 1.42855e-08C15.5995 -7.38977e-05 16.932 0.286663 18.1606 0.841165C19.3892 1.39567 20.4857 2.20524 21.3774 3.21611C22.269 2.20524 23.3656 1.39567 24.5941 0.841165C25.8227 0.286663 27.1552 -7.38977e-05 28.5032 1.42855e-08H29.6908C30.6357 1.42855e-08 31.542 0.375376 32.2101 1.04355C32.8783 1.71172 33.2537 2.61796 33.2537 3.5629V4.75053C33.2537 6.48209 32.7905 8.1044 31.9829 9.50105H38.0042C39.2641 9.50105 40.4725 10.0016 41.3633 10.8925C42.2542 11.7833 42.7547 12.9917 42.7547 14.2516V19.0021C42.7547 19.8667 42.5243 20.679 42.1182 21.3774H23.7526V14.2516C23.7526 13.6216 23.5024 13.0175 23.0569 12.572C22.6115 12.1266 22.0073 11.8763 21.3774 11.8763C20.7474 11.8763 20.1433 12.1266 19.6978 12.572C19.2524 13.0175 19.0021 13.6216 19.0021 14.2516V21.3774H0.63657C0.219582 20.6552 3.66915e-05 19.836 0 19.0021V14.2516C0 12.9917 0.5005 11.7833 1.3914 10.8925C2.28229 10.0016 3.49061 9.50105 4.75053 9.50105H10.7718C9.93867 8.05651 9.50041 6.41812 9.50105 4.75053V3.5629C9.50105 2.61796 9.87643 1.71172 10.5446 1.04355C11.2128 0.375376 12.119 1.42855e-08 13.064 1.42855e-08H14.2516ZM14.2516 4.75053C14.2516 6.01045 14.7521 7.21876 15.643 8.10966C16.5339 9.00055 17.7422 9.50105 19.0021 9.50105C19.0021 8.24114 18.5016 7.03282 17.6107 6.14192C16.7198 5.25103 15.5115 4.75053 14.2516 4.75053ZM28.5032 4.75053C27.2432 4.75053 26.0349 5.25103 25.144 6.14192C24.2531 7.03282 23.7526 8.24114 23.7526 9.50105C25.0126 9.50105 26.2209 9.00055 27.1118 8.10966C28.0027 7.21876 28.5032 6.01045 28.5032 4.75053Z" fill="#354A93"/>
</svg>
